<svg xmlns="http://www.w3.org/2000/svg" xmlns:xlink="http://www.w3.org/1999/xlink" style="enable-background:new 0 0 508.089 508.089" id="Capa_1" width="512" height="512" x="0" y="0" version="1.1" viewBox="0 0 508.089 508.089" xml:space="preserve"><g><g><g><path fill="#032a5f" d="M507.816,254.235c-1-37.9-8.3-74.3-24.3-108.2c13.2-27.8,24.2-55.9,24.2-72c0-40.6-33-73.7-73.7-73.7 c-24.5,0-46.2,12.1-59.6,30.6c-61.7-33.6-121.1-30.4-121.4-30.5c-75.8-6.6-252.8,61.2-252.8,253.8 c0,150.5,125.5,256.6,253.8,253.8C438.216,503.935,510.216,352.135,507.816,254.235z M207.716,21.335 c-21.3,20.3-39.1,54.4-51.1,97.4c-22.4-10.1-43.2-23.7-61.7-40.5C127.016,49.135,165.816,29.635,207.716,21.335z M168.016,141.035 c24.7,8.9,50.9,13.9,77.7,14.7v90.3h-90C156.416,208.335,160.716,172.635,168.016,141.035z M83.116,89.635 c20.8,19,44.2,34.1,69.3,45.2c-7.8,33.2-12.4,70.9-13,111.2h-122.6C18.816,187.035,42.115,132.035,83.116,89.635z M162.116,352.135c14.5,0,26.3,11.8,26.3,26.3s-11.8,26.3-26.3,26.3s-26.3-11.8-26.3-26.3S147.616,352.135,162.116,352.135z M16.816,262.335h122.7c0.4,26.3,2.5,52,6.4,76.6c-15.5,6.4-26.4,21.7-26.4,39.4c0,4.1,0.8,7.9,1.8,11.6 c-13.6,8.4-26.4,18-38.2,28.8C42.115,376.435,18.816,321.435,16.816,262.335z M94.916,430.235c10.5-9.5,21.8-18.1,33.9-25.6 c7.8,10,20,17.7,38.2,16c11.3,29.1,25.3,51.6,41,66.5C166.016,478.935,127.116,459.435,94.916,430.235z M245.816,490.635 c-23.7-5-46.2-31.6-63.2-75c13.2-7.3,24.4-21.4,21.8-41.5c13.6-2.9,27.4-4.6,41.4-5.1V490.635z M245.816,262.335v90.3 c-15.6,0.5-31,2.4-46.1,5.7c-7.2-13.4-21.2-22.7-37.5-22.7c-0.1,0-0.1,0-0.2,0c-3.7-23.6-5.7-48.2-6.1-73.4h89.9V262.335z M245.816,139.435c-25.5-0.9-50.3-5.7-73.7-14.3c16.3-59.4,43.3-101,73.7-107.4V139.435z M434.016,16.835 c31.6,0,57.3,25.7,57.3,57.3c0,24.7-36.5,94.3-57.3,131c-20.8-36.6-57.3-106.3-57.3-131 C376.716,42.535,402.416,16.835,434.016,16.835z M375.216,125.135c18.2,42.9,58.9,112.5,58.9,112.5s25.1-42.9,40-72.3 c10.4,25.6,16.1,52.7,17,80.7h-122.6c-0.6-40.4-5.2-78.1-13-111.3C362.216,131.835,368.716,128.635,375.216,125.135z M366.316,45.235c-3.8,8.9-5.9,18.6-5.9,28.9c0,8.9,3.4,21.5,8.7,35.7c-5.8,3.2-11.7,6.1-17.7,8.9c-12.1-43-29.8-76.9-51-97.2 C323.416,25.935,345.616,34.035,366.316,45.235z M262.116,17.735c30.4,6.4,57.3,47.9,73.7,107.2c-23.5,8.7-48.4,13.5-73.7,14.4 V17.735z M262.116,155.735c26.6-0.9,52.8-5.9,77.7-14.8c7.3,31.6,11.7,67.4,12.3,105.1h-90V155.735z M262.116,262.335h90 c-0.6,37.7-4.9,73.4-12.2,105c-24.8-8.9-50.9-13.8-77.8-14.7V262.335z M262.116,490.635v-121.6c25.5,0.9,50.3,5.7,73.7,14.3 C319.516,442.735,292.516,484.235,262.116,490.635z M300.216,487.035c21.3-20.2,39.1-54.3,51.1-97.4 c22.4,10.1,43.2,23.7,61.8,40.5C381.016,459.235,342.116,478.735,300.216,487.035z M424.916,418.835c-20.8-19-44.2-34.2-69.4-45.2 c7.8-33.2,12.4-70.9,13-111.2h122.7C489.216,321.435,465.916,376.435,424.916,418.835z" class="active-path" data-old_color="#000000" data-original="#000000"/></g></g><g><g><path fill="#032a5f" d="M434.016,41.335c-18.1,0-32.7,14.7-32.7,32.8c0,18.1,14.7,32.7,32.7,32.7c18.1,0,32.8-14.7,32.8-32.7 S452.116,41.335,434.016,41.335z M434.016,90.535c-9,0-16.4-7.3-16.4-16.4c0-9.1,7.4-16.4,16.4-16.4s16.4,7.3,16.4,16.4 C450.416,83.235,443.116,90.535,434.016,90.535z" class="active-path" data-old_color="#000000" data-original="#000000"/></g></g></g></svg>
