<svg xmlns="http://www.w3.org/2000/svg" xmlns:xlink="http://www.w3.org/1999/xlink" width="128" height="30" version="1.1" viewBox="0 0 128 30"><desc>Created with Sketch.</desc><g id="Page-1" fill="none" fill-rule="evenodd" stroke="none" stroke-width="1"><g id="box-g" fill-rule="nonzero"><path id="ticketbox" fill="#000" d="M39.02,13.18 L41.46,13.18 L41.46,10.66 L39.04,10.66 L39.06,7.24 L36.14,7.24 L36.12,10.66 L34.22,10.66 L34.22,13.18 L36.1,13.18 L36.08,17.72 C36.06,20.12 37.6,21.2 39.84,21.2 C40.64,21.2 41.04,21.14 41.46,21.08 L41.46,18.48 C41.24,18.52 40.98,18.58 40.56,18.58 C39.74,18.58 39,18.16 39,17.02 L39.02,13.18 Z M44.98,5.52 C44.04,5.52 43.24,6.3 43.24,7.28 C43.24,8.24 44,9.02 44.98,9.02 C45.96,9.02 46.74,8.24 46.74,7.28 C46.74,6.3 45.96,5.52 44.98,5.52 Z M46.44,21 L46.44,10.66 L43.52,10.66 L43.52,21 L46.44,21 Z M54.08,10.46 C51.02,10.46 48.78,12.44 48.78,15.84 C48.78,19.22 51.04,21.22 54.08,21.22 C56.62,21.22 58.58,19.72 58.98,17.28 L56.14,17.02 C55.98,18.06 55.22,18.7 54.08,18.7 C52.72,18.7 51.74,17.66 51.74,15.84 C51.74,14 52.72,12.96 54.08,12.96 C55.2,12.96 55.98,13.64 56.12,14.7 L58.98,14.46 C58.6,11.96 56.6,10.46 54.08,10.46 Z M64.1,14.34 L64.1,5.46 L61.18,5.46 L61.18,21 L64.1,21 L64.1,18.26 L65.02,17.26 L67.72,21 L71.26,21 L67.08,15.08 L70.98,10.66 L67.44,10.66 L64.1,14.34 Z M81.88,16.76 L74.78,16.76 C74.84,18.04 75.62,18.86 76.94,18.86 C77.96,18.86 78.62,18.44 78.84,17.72 L81.78,17.86 C81.42,19.82 79.44,21.22 77.02,21.22 C73.86,21.22 71.68,19.16 71.68,15.84 C71.68,12.5 73.86,10.46 76.94,10.46 C79.92,10.46 81.88,12.38 81.88,15.6 L81.88,16.76 Z M76.92,12.74 C75.68,12.74 74.86,13.5 74.78,14.82 L78.94,14.82 C78.88,13.56 78.24,12.74 76.92,12.74 Z M87.78,13.18 L90.22,13.18 L90.22,10.66 L87.8,10.66 L87.82,7.24 L84.9,7.24 L84.88,10.66 L82.98,10.66 L82.98,13.18 L84.86,13.18 L84.84,17.72 C84.82,20.12 86.36,21.2 88.6,21.2 C89.4,21.2 89.8,21.14 90.22,21.08 L90.22,18.48 C90,18.52 89.74,18.58 89.32,18.58 C88.5,18.58 87.76,18.16 87.76,17.02 L87.78,13.18 Z M95.2,5.46 L95.2,11.56 C95.74,10.94 96.78,10.46 98.1,10.46 C101.04,10.46 103.1,12.58 103.1,15.84 C103.1,19.08 101.04,21.22 98.1,21.22 C96.66,21.22 95.58,20.64 95.04,19.94 L95.04,21 L92.28,21 L92.28,5.46 L95.2,5.46 Z M97.64,12.96 C96.2,12.96 95.2,13.94 95.2,15.6 L95.2,16.06 C95.2,17.74 96.2,18.7 97.64,18.7 C99.1,18.7 100.14,17.68 100.14,15.84 C100.14,14 99.1,12.96 97.64,12.96 Z M110.36,10.46 C113.52,10.46 115.86,12.58 115.86,15.84 C115.86,19.08 113.52,21.22 110.36,21.22 C107.2,21.22 104.86,19.08 104.86,15.84 C104.86,12.58 107.2,10.46 110.36,10.46 Z M110.36,12.96 C108.86,12.96 107.82,14.02 107.82,15.84 C107.82,17.64 108.86,18.7 110.36,18.7 C111.86,18.7 112.9,17.64 112.9,15.84 C112.9,14.02 111.86,12.96 110.36,12.96 Z M123.92,15.78 L127.12,10.66 L123.8,10.66 L121.88,13.82 L119.96,10.66 L116.64,10.66 L119.82,15.78 L116.6,21 L119.92,21 L121.88,17.78 L123.86,21 L127.2,21 L123.92,15.78 Z"/><g id="Group-2" fill="#032a5f"><polyline id="Fill-2" points="13 0 25.447 7.181 23.325 8.406 13 2.449 2.122 8.724 2.122 21.276 13 27.551 23.878 21.276 23.878 12.429 26 11.205 26 22.5 13 30 0 22.5 0 7.5 13 0"/><polyline id="Fill-3" points="12.608 14.602 19.456 10.689 13 7 6 11 6 19 13 23 20 19 20 14.611 12.608 18.835 7.472 15.9 9.323 12.725 12.608 14.602"/></g></g></g></svg>