<svg xmlns="http://www.w3.org/2000/svg" xmlns:xlink="http://www.w3.org/1999/xlink" width="48" height="48" aria-describedby="desc" aria-labelledby="title" role="img" viewBox="0 0 64 64"><title>Coins</title><desc>A solid styled icon from Orion Icon Library.</desc><ellipse cx="20" cy="40.9" fill="#8d8ea3" data-name="layer2" rx="18" ry="5.1"/><path fill="#8d8ea3" d="M2 46.7v4c5.3 3 14.4 3.3 18 3.3s12.7-.3 18-3.3v-4c-5.3 3-14.4 3.3-18 3.3s-12.7-.3-18-3.3zm0 8v4c5.3 3 14.4 3.3 18 3.3s12.7-.3 18-3.3v-4c-5.3 3-14.4 3.3-18 3.3s-12.7-.3-18-3.3z" data-name="layer2"/><path fill="#032a5f" d="M41.9 40.1a6 6 0 0 1 .1.8 5.6 5.6 0 0 1-1 3.2h3c3.6 0 12.7-.3 18-3.3v-4c-5.3 3-14.4 3.3-18 3.3zm.1 8v2.6a4 4 0 0 1-.3 1.4H44c3.6 0 12.7-.3 18-3.3v-4c-5.3 3-14.4 3.3-18 3.3z" data-name="layer1"/><ellipse cx="44" cy="7.1" fill="#032a5f" data-name="layer1" rx="18" ry="5.1"/><path fill="#032a5f" d="M26 28.9v3.2c4.6.4 10.1 1.4 13.3 3.9l4.7.2c3.6 0 12.7-.3 18-3.3v-4c-5.3 3-14.4 3.3-18 3.3s-12.7-.4-18-3.3zm0-16v4c5.3 3 14.4 3.3 18 3.3s12.7-.3 18-3.3v-4c-5.3 3-14.4 3.3-18 3.3s-12.7-.4-18-3.3zm0 8v4c5.3 3 14.4 3.3 18 3.3s12.7-.3 18-3.3v-4c-5.3 3-14.4 3.3-18 3.3s-12.7-.4-18-3.3z" data-name="layer1"/></svg>