<svg xmlns="http://www.w3.org/2000/svg" xmlns:xlink="http://www.w3.org/1999/xlink" width="48" height="48" aria-describedby="desc" aria-labelledby="title" role="img" viewBox="0 0 64 64"><title>Deposit Box</title><desc>A solid styled icon from Orion Icon Library.</desc><path fill="#8d8ea3" d="M59 2H5a3 3 0 0 0-3 3v50a3 3 0 0 0 3 3h3v2a2 2 0 1 0 4 0v-2h40v2a2 2 0 1 0 4 0v-2h3a3 3 0 0 0 3-3V5a3 3 0 0 0-3-3zm-3 50H8V42a2 2 0 0 1 0-4V22a2 2 0 0 1 0-4V8h48z" data-name="layer2"/><path fill="#032a5f" d="M52 12H12v6a2 2 0 0 1 0 4v16a2 2 0 0 1 0 4v6h40zm-12 6a6 6 0 1 1-6 6 6 6 0 0 1 6-6zm4 26h-8a2 2 0 0 1 0-4h8a2 2 0 0 1 0 4zm0-6h-8a2 2 0 0 1 0-4h8a2 2 0 0 1 0 4z" data-name="layer1"/></svg>