<svg xmlns="http://www.w3.org/2000/svg" xmlns:xlink="http://www.w3.org/1999/xlink" width="48" height="48" aria-describedby="desc" aria-labelledby="title" role="img" viewBox="0 0 64 64"><title>Headphones User</title><desc>A solid styled icon from Orion Icon Library.</desc><path fill="#8d8ea3" d="M39.9 40.4A15.3 15.3 0 0 0 46 28c0-8.3-6.3-15-14-15s-14 6.7-14 15a15.3 15.3 0 0 0 6.1 12.4A24.1 24.1 0 0 0 8 63h48a24.1 24.1 0 0 0-16.1-22.6z" data-name="layer2"/><path fill="#032a5f" d="M52 19h-2a18 18 0 1 0-36 0h-2a4 4 0 0 0-4 4v10a4 4 0 0 0 4 4h4.2a19.8 19.8 0 0 1-2.2-9 19.5 19.5 0 0 1 4.5-12.5 14 14 0 0 1 27.1 0A19.5 19.5 0 0 1 50 28a19.8 19.8 0 0 1-2.2 9H52a4 4 0 0 0 4-4V23a4 4 0 0 0-4-4z" data-name="layer1"/></svg>