<svg xmlns="http://www.w3.org/2000/svg" xmlns:xlink="http://www.w3.org/1999/xlink" id="Layer_1" x="0" y="0" version="1.1" viewBox="0 0 512.001 512.001" xml:space="preserve" style="enable-background:new 0 0 512.001 512.001"><path style="fill:#f5f5f5" d="M482.445,341.81l-0.029-171.619l-0.004-24.585c-0.003-12.607-6.729-24.255-17.649-30.557	L273.602,4.725c-10.918-6.302-24.37-6.3-35.287,0.006L47.19,115.118c-10.917,6.305-17.64,17.955-17.639,30.562l0.004,24.51	l0.029,171.619l0.004,24.585C29.59,379,36.317,390.648,47.236,396.95l191.161,110.325c10.918,6.302,24.37,6.298,35.287-0.006	L464.809,396.88c10.917-6.305,17.64-17.955,17.639-30.563L482.445,341.81z"/><polygon style="fill:#41479b" points="482.417 170.191 29.556 170.191 29.585 341.81 254.751 368.469 482.445 341.81"/><path style="fill:#032a5f" d="M482.445,341.81H29.585l0.004,24.585c0.003,12.607,6.729,24.255,17.649,30.557l191.161,110.325	c10.918,6.302,24.37,6.298,35.287-0.006l191.125-110.389c10.917-6.305,17.64-17.955,17.639-30.563L482.445,341.81z"/></svg>