<svg xmlns="http://www.w3.org/2000/svg" xmlns:xlink="http://www.w3.org/1999/xlink" width="64" height="64" aria-describedby="desc" aria-labelledby="title" role="img" viewBox="0 0 64 64"><title>Certificate</title><desc>A line styled icon from Orion Icon Library.</desc><path fill="none" stroke="#032a5f" stroke-linecap="round" stroke-linejoin="round" stroke-miterlimit="10" stroke-width="2" d="M40 56H6V2h24l16 16v6.3" data-name="layer2"/><path fill="none" stroke="#032a5f" stroke-linecap="round" stroke-linejoin="round" stroke-miterlimit="10" stroke-width="2" d="M30 2v16h16" data-name="layer2"/><circle cx="48" cy="36" r="4" fill="none" stroke="#032a5f" stroke-linecap="round" stroke-linejoin="round" stroke-miterlimit="10" stroke-width="2" data-name="layer1"/><path fill="none" stroke="#032a5f" stroke-linecap="round" stroke-linejoin="round" stroke-miterlimit="10" stroke-width="2" d="M40 44.2v16.1l8-5.3 8 5.3V44.1" data-name="layer1"/><path fill="none" stroke="#032a5f" stroke-linecap="round" stroke-linejoin="round" stroke-miterlimit="10" stroke-width="2" d="M58.9 38.4a.8.8 0 0 0-.1-.4 5.2 5.2 0 0 1 0-4 4.9 4.9 0 0 0-3.7-6.4H55a3.8 3.8 0 0 1-3-1.5 4.9 4.9 0 0 0-7.9-.1H44a4.5 4.5 0 0 1-2.9 1.6 4.9 4.9 0 0 0-3.9 6.1.6.6 0 0 0 .1.3 4.7 4.7 0 0 1 0 4 4.9 4.9 0 0 0 4 6.4h.1A3.2 3.2 0 0 1 44 46a4.9 4.9 0 0 0 7.9.1h.1a5.3 5.3 0 0 1 3.1-1.7 4.9 4.9 0 0 0 3.9-6z" data-name="layer1"/></svg>