<svg xmlns="http://www.w3.org/2000/svg" xmlns:xlink="http://www.w3.org/1999/xlink" width="128" height="128" aria-describedby="desc" aria-labelledby="title" role="img" viewBox="0 0 64 64"><title>Private Folder</title><desc>A solid styled icon from Orion Icon Library.</desc><path fill="#8d8ea3" d="M58 38v-8a8 8 0 1 0-16 0v8h-4v18h24V38zm-6 11a2 2 0 1 1-4 0v-4a2 2 0 1 1 4 0zm-6-11v-8a4 4 0 1 1 8 0v8z" data-name="layer2"/><path fill="#032a5f" d="M34 38v-4h4v-4a12 12 0 0 1 16-11.3V14H22V8H2v40.3A1.7 1.7 0 0 0 3.7 50H34z" data-name="layer1"/></svg>
