<svg xmlns="http://www.w3.org/2000/svg" xmlns:xlink="http://www.w3.org/1999/xlink" width="48" height="48" aria-describedby="desc" aria-labelledby="title" role="img" viewBox="0 0 64 64"><title>Stars</title><desc>A solid styled icon from Orion Icon Library.</desc><path fill="#8d8ea3" d="M15 51.1L7 57l3.1-9.5L2 41.7h9.9l3.1-9.4 3.1 9.4H28l-8.1 5.8L23 57l-8-5.9zm34 0L41 57l3.1-9.5-8.1-5.8h9.9l3.1-9.4 3.1 9.4H62l-8.1 5.8L57 57l-8-5.9z" data-name="layer2"/><path fill="#032a5f" d="M32 25.9l-8 5.8 3.1-9.4-8.1-5.8h9.9L32 7l3.1 9.5H45l-8.1 5.8 3.1 9.4-8-5.8z" data-name="layer1"/></svg>