<svg xmlns="http://www.w3.org/2000/svg" xmlns:xlink="http://www.w3.org/1999/xlink" width="128" height="128" aria-describedby="desc" aria-labelledby="title" role="img" viewBox="0 0 64 64"><title>Syncing Document</title><desc>A solid styled icon from Orion Icon Library.</desc><path fill="#032a5f" d="M40 23.5H24v32.7a1.3 1.3 0 0 0 1.3 1.3h35.4a1.3 1.3 0 0 0 1.3-1.3V27.5H40z" data-name="layer1"/><path fill="#8d8ea3" d="M40 19.5v-12H18v-4H2v32.7a1.3 1.3 0 0 0 1.3 1.3H20v-18h20zM17.4 52.1l-5-5a2 2 0 0 0-2.8 2.8l1.6 1.6H6a2 2 0 0 1-2-2v-2a2 2 0 1 0-4 0v2a6 6 0 0 0 6 6h5.2l-1.6 1.6a2 2 0 0 0 2.8 2.8l5-5 1.4-1.4-1.4-1.4z" data-name="layer2"/><path fill="#032a5f" d="M58 9.5h-5.2l1.6-1.6a2 2 0 0 0-2.8-2.8l-5 5-1.4 1.4 1.4 1.4 5 5a2 2 0 0 0 2.8-2.8l-1.6-1.6H58a2 2 0 0 1 2 2v2a2 2 0 1 0 4 0v-2a6 6 0 0 0-6-6z" data-name="layer1"/></svg>